<?xml version="1.0" standalone="no"?>
<!DOCTYPE svg PUBLIC "-//W3C//DTD SVG 20010904//EN"
 "http://www.w3.org/TR/2001/REC-SVG-20010904/DTD/svg10.dtd">
<svg version="1.0" xmlns="http://www.w3.org/2000/svg"
 width="512.000000pt" height="512.000000pt" viewBox="0 0 512.000000 512.000000"
 preserveAspectRatio="xMidYMid meet">

<g transform="translate(0.000000,512.000000) scale(0.100000,-0.100000)"
fill="#000000" stroke="none">
<path d="M0 3230 l0 -160 245 0 c157 0 245 -4 245 -10 0 -6 82 -10 225 -10
143 0 225 -4 225 -10 0 -6 33 -10 80 -10 44 0 80 -4 80 -9 0 -5 25 -13 55 -16
30 -4 55 -11 55 -16 0 -5 7 -9 15 -9 8 0 15 -4 15 -10 0 -5 9 -10 20 -10 11 0
20 -4 20 -10 0 -5 9 -10 19 -10 10 0 21 -7 25 -15 3 -8 14 -15 23 -15 10 0 25
-9 33 -20 8 -11 20 -20 27 -20 7 0 13 -4 13 -10 0 -5 12 -13 28 -16 15 -4 34
-15 43 -26 9 -10 20 -18 25 -18 5 0 16 -9 24 -20 8 -11 22 -20 31 -20 9 0 25
-11 35 -25 10 -14 26 -25 34 -25 9 0 22 -9 30 -20 8 -11 20 -20 27 -20 7 0 23
-11 37 -25 14 -14 28 -25 32 -25 4 0 14 -8 23 -18 9 -11 28 -22 43 -25 15 -4
30 -16 33 -27 3 -11 13 -20 21 -20 8 0 26 -11 40 -25 14 -14 30 -25 37 -25 7
0 19 -9 27 -20 8 -11 22 -20 32 -20 9 0 20 -9 23 -20 3 -11 18 -23 33 -27 15
-3 34 -14 43 -25 9 -10 20 -18 25 -18 5 0 16 -9 24 -20 8 -11 23 -20 33 -20 9
0 20 -7 23 -15 4 -8 13 -15 21 -15 8 0 27 -13 42 -29 14 -15 36 -31 49 -35 12
-4 22 -12 22 -17 0 -5 9 -9 20 -9 11 0 20 -4 20 -10 0 -5 7 -10 15 -10 8 0 15
-4 15 -10 0 -5 9 -10 20 -10 11 0 20 -4 20 -10 0 -5 16 -12 35 -16 19 -3 35
-10 35 -15 0 -5 11 -9 25 -9 14 0 25 -4 25 -10 0 -5 14 -10 30 -10 17 0 30 -4
30 -10 0 -5 20 -10 45 -10 25 0 45 -4 45 -9 0 -5 52 -12 115 -16 63 -4 115
-11 115 -16 0 -5 29 -9 65 -9 37 0 65 -4 65 -10 0 -6 27 -10 60 -10 33 0 60
-4 60 -10 0 -5 25 -10 55 -10 30 0 55 -4 55 -9 0 -5 54 -12 120 -16 66 -4 120
-11 120 -16 0 -5 18 -9 40 -9 22 0 40 -4 40 -10 0 -5 20 -10 45 -10 25 0 45
-4 45 -10 0 -5 20 -10 45 -10 25 0 45 -4 45 -9 0 -5 38 -12 85 -16 47 -4 85
-11 85 -16 0 -5 16 -9 35 -9 19 0 35 -4 35 -10 0 -5 11 -10 25 -10 14 0 25 -4
25 -10 0 -5 14 -10 30 -10 17 0 30 -4 30 -9 0 -5 23 -12 50 -16 28 -4 50 -11
50 -16 0 -5 8 -9 18 -9 10 0 24 -9 32 -20 8 -11 18 -20 23 -20 4 0 13 -4 20
-10 52 -43 77 -70 77 -84 0 -9 7 -19 15 -22 8 -4 15 -15 15 -25 0 -10 5 -19
10 -19 6 0 10 -9 10 -20 0 -11 5 -20 10 -20 6 0 10 -11 10 -24 0 -13 5 -26 10
-28 6 -2 13 -60 17 -136 3 -72 10 -132 15 -132 4 0 8 -65 8 -145 0 -90 4 -145
10 -145 6 0 10 -5 10 -10 0 -14 46 -60 59 -60 5 0 11 -5 13 -11 3 -8 30 -12
75 -11 69 0 73 2 107 36 20 19 36 40 36 46 0 5 5 10 10 10 6 0 10 48 10 125 0
77 -4 125 -10 125 -6 0 -10 43 -10 110 0 67 -4 110 -10 110 -5 0 -10 25 -10
55 0 30 -4 55 -10 55 -5 0 -10 16 -10 35 0 19 -4 35 -9 35 -5 0 -12 20 -15 45
-4 25 -11 45 -17 45 -5 0 -9 11 -9 25 0 14 -4 25 -10 25 -5 0 -10 7 -10 16 0
9 -8 24 -19 33 -10 9 -21 26 -25 39 -4 12 -12 22 -17 22 -5 0 -9 8 -9 18 0 10
-10 24 -21 32 -12 8 -27 21 -33 28 -39 46 -78 82 -89 82 -7 0 -19 9 -27 20 -8
11 -22 20 -32 20 -10 0 -18 5 -18 10 0 6 -7 10 -15 10 -8 0 -15 4 -15 9 0 6
-20 13 -45 17 -25 3 -45 10 -45 15 0 5 -9 9 -20 9 -11 0 -20 5 -20 10 0 6 -11
10 -25 10 -14 0 -25 5 -25 10 0 6 -13 10 -30 10 -16 0 -30 4 -30 9 0 5 -31 12
-70 16 -38 4 -70 11 -70 16 0 5 -16 9 -35 9 -19 0 -35 5 -35 10 0 6 -18 10
-40 10 -22 0 -40 5 -40 10 0 6 -16 10 -35 10 -19 0 -35 4 -35 9 0 5 -40 12
-90 16 -49 4 -90 11 -90 16 0 5 -20 9 -45 9 -25 0 -45 5 -45 10 0 6 -22 10
-50 10 -27 0 -50 5 -50 10 0 6 -20 10 -45 10 -25 0 -45 4 -45 9 0 4 -57 11
-127 15 -71 4 -129 11 -131 17 -2 5 -35 9 -73 9 -39 0 -69 4 -69 10 0 6 -28
10 -65 10 -37 0 -65 4 -65 10 0 6 -20 10 -45 10 -25 0 -45 4 -45 9 0 4 -27 11
-60 15 -33 4 -60 11 -60 16 0 6 -13 10 -30 10 -16 0 -30 5 -30 10 0 6 -5 10
-11 10 -7 0 -19 8 -28 19 -9 10 -30 21 -47 25 -16 4 -36 16 -44 26 -8 11 -22
20 -32 20 -9 0 -20 9 -23 20 -3 11 -15 20 -25 20 -11 0 -30 11 -44 25 -14 14
-29 25 -33 25 -5 0 -15 9 -23 20 -8 11 -22 20 -31 20 -9 0 -25 11 -35 25 -10
14 -26 25 -34 25 -8 0 -24 11 -34 25 -10 14 -26 25 -35 25 -9 0 -23 9 -31 20
-8 11 -18 20 -23 20 -4 0 -19 11 -33 25 -14 14 -34 25 -44 25 -11 0 -20 4 -20
8 0 17 -36 49 -62 56 -16 3 -28 11 -28 16 0 6 -6 10 -13 10 -7 0 -19 9 -27 20
-8 11 -20 20 -28 20 -7 0 -23 11 -36 25 -13 14 -30 25 -37 25 -8 0 -21 9 -29
20 -8 11 -18 20 -23 20 -5 0 -15 7 -23 15 -9 8 -24 15 -34 15 -10 0 -22 9 -25
20 -3 11 -13 20 -22 20 -9 0 -23 8 -32 19 -9 10 -26 21 -38 25 -13 4 -23 12
-23 17 0 5 -9 9 -20 9 -11 0 -20 5 -20 10 0 6 -7 10 -15 10 -8 0 -15 5 -15 10
0 6 -9 10 -20 10 -11 0 -20 4 -20 9 0 5 -16 12 -35 15 -19 4 -35 11 -35 16 0
6 -13 10 -30 10 -16 0 -30 5 -30 10 0 6 -7 10 -15 10 -8 0 -15 5 -15 10 0 6
-20 10 -44 10 -24 0 -46 5 -48 11 -3 8 -98 13 -306 17 -166 3 -302 9 -302 13
0 5 -115 9 -255 9 l-255 0 0 -160z"/>
<path d="M0 470 l0 -170 2405 0 c1597 0 2405 3 2405 10 0 6 7 10 15 10 8 0 15
4 15 9 0 5 9 13 20 16 11 3 20 15 20 26 0 10 5 19 10 19 6 0 10 30 10 70 0 40
-4 70 -10 70 -5 0 -10 7 -10 16 0 19 -56 74 -76 74 -8 0 -14 5 -14 10 0 7
-805 10 -2395 10 l-2395 0 0 -170z"/>
</g>
</svg>
