<?xml version="1.0" standalone="no"?>
<!DOCTYPE svg PUBLIC "-//W3C//DTD SVG 20010904//EN"
 "http://www.w3.org/TR/2001/REC-SVG-20010904/DTD/svg10.dtd">
<svg version="1.0" xmlns="http://www.w3.org/2000/svg"
 width="516.000000pt" height="198.000000pt" viewBox="0 0 516.000000 198.000000"
 preserveAspectRatio="xMidYMid meet">

<g transform="translate(0.000000,198.000000) scale(0.100000,-0.100000)"
fill="#ececec" stroke="none">
<path d="M1895 1853 c-28 -10 -67 -32 -89 -48 -35 -26 -172 -212 -380 -513
-43 -62 -81 -112 -85 -110 -4 2 -46 46 -94 100 -120 133 -139 148 -191 148
-23 0 -52 -7 -64 -16 -12 -8 -79 -90 -149 -182 -257 -339 -326 -424 -357 -443
-25 -16 -50 -19 -139 -19 -119 0 -139 -6 -162 -51 -13 -24 -14 -37 -5 -64 19
-57 42 -65 193 -65 212 0 186 -21 507 408 95 127 177 232 180 232 4 0 43 -42
88 -92 132 -153 156 -173 203 -172 60 2 43 -17 348 410 94 133 190 259 213
279 l41 38 426 -6 c234 -4 457 -11 495 -16 89 -12 158 -48 331 -171 436 -310
469 -331 555 -358 19 -7 152 -29 295 -51 422 -64 616 -113 687 -171 71 -59
108 -185 108 -373 0 -70 12 -94 53 -112 42 -17 83 -9 108 24 20 24 21 34 15
146 -4 66 -13 150 -21 187 -30 148 -109 255 -229 313 -124 60 -396 123 -735
170 -277 39 -281 41 -525 218 -389 283 -483 337 -621 357 -45 6 -272 13 -515
16 -402 5 -439 4 -485 -13z"/>
<path d="M229 329 c-35 -13 -64 -68 -55 -103 4 -15 18 -39 31 -52 l24 -24
2376 0 2376 0 24 25 c37 36 35 97 -4 136 l-29 29 -2359 -1 c-1477 0 -2368 -4
-2384 -10z"/>
</g>
</svg>
