<?xml version="1.0" standalone="no"?>
<!DOCTYPE svg PUBLIC "-//W3C//DTD SVG 20010904//EN"
 "http://www.w3.org/TR/2001/REC-SVG-20010904/DTD/svg10.dtd">
<svg version="1.0" xmlns="http://www.w3.org/2000/svg"
 width="399.000000pt" height="213.000000pt" viewBox="0 0 399.000000 213.000000"
 preserveAspectRatio="xMidYMid meet">

<g transform="translate(0.000000,213.000000) scale(0.100000,-0.100000)"
fill="#410066" stroke="none">
<path d="M1412 2009 c-51 -26 -99 -84 -271 -326 -67 -95 -125 -173 -129 -173
-4 0 -45 40 -92 90 -84 88 -87 90 -132 90 -54 0 -41 13 -255 -265 -182 -236
-176 -231 -293 -240 -108 -8 -130 -20 -130 -71 0 -53 29 -65 152 -66 154 -2
145 -9 388 307 l142 185 95 -100 c83 -87 99 -100 128 -100 42 0 62 22 243 272
78 108 161 217 185 242 l42 46 360 -9 c405 -10 410 -11 529 -88 37 -24 143
-96 235 -160 239 -168 233 -166 519 -213 414 -69 507 -98 552 -172 26 -44 50
-153 50 -232 0 -54 4 -69 22 -86 45 -41 118 -10 118 51 0 74 -23 227 -42 278
-26 69 -94 143 -162 176 -75 37 -253 79 -507 120 -152 25 -241 44 -277 61 -30
13 -129 77 -220 141 -313 221 -350 240 -487 254 -49 5 -232 9 -405 9 -302 0
-317 -1 -358 -21z"/>
<path d="M142 843 c-13 -5 -42 -55 -42 -72 0 -5 12 -23 26 -40 l26 -31 1838 0
1839 0 20 26 c27 34 27 64 0 98 l-20 26 -1837 -1 c-1010 0 -1843 -3 -1850 -6z"/>
<path d="M1554 556 c-3 -8 -4 -25 -2 -38 2 -19 9 -23 37 -23 66 0 68 67 2 73
-21 2 -33 -2 -37 -12z"/>
<path d="M117 547 c-16 -11 -17 -33 -15 -221 3 -186 5 -210 20 -220 13 -8 23
-8 35 0 15 9 19 32 23 148 l5 137 44 -71 c79 -129 90 -130 166 -18 l55 83 0
-131 c0 -136 5 -154 45 -154 42 0 45 14 45 232 0 200 -1 208 -21 218 -11 7
-27 9 -34 6 -8 -3 -42 -47 -76 -98 -98 -148 -82 -145 -162 -21 -84 130 -93
138 -130 110z"/>
<path d="M1052 508 c-7 -7 -12 -25 -12 -40 0 -23 -4 -28 -25 -28 -29 0 -47
-28 -34 -53 6 -9 21 -17 34 -17 l25 0 0 -110 c0 -104 1 -112 25 -135 17 -18
35 -25 62 -25 37 0 83 22 83 40 0 19 -30 37 -54 33 l-26 -5 0 101 0 101 29 0
c63 0 65 62 2 68 -23 3 -31 8 -31 23 0 50 -47 78 -78 47z"/>
<path d="M727 446 c-76 -28 -117 -90 -117 -176 0 -100 62 -167 162 -176 91 -9
183 56 133 92 -14 11 -23 10 -46 -1 -15 -8 -47 -15 -69 -15 -34 0 -48 6 -73
33 l-32 32 116 5 c133 6 154 15 143 64 -23 111 -123 176 -217 142z m101 -82
c12 -8 22 -24 22 -35 0 -17 -7 -19 -75 -19 -68 0 -75 2 -75 19 0 26 37 51 75
51 17 0 41 -7 53 -16z"/>
<path d="M1417 450 c-16 -5 -35 -14 -42 -20 -11 -9 -18 -8 -30 4 -22 22 -52
20 -65 -3 -15 -28 -13 -304 2 -319 18 -18 56 -14 68 7 5 11 10 64 10 118 0
124 11 145 75 142 68 -4 98 34 53 65 -25 18 -30 18 -71 6z"/>
<path d="M1805 446 c-122 -45 -152 -211 -56 -307 58 -58 170 -65 229 -14 22
20 25 27 16 42 -12 18 -15 19 -115 7 -42 -5 -48 -3 -72 26 -39 46 -38 111 2
151 34 33 75 38 122 13 36 -18 59 -6 59 32 0 47 -111 77 -185 50z"/>
<path d="M2146 450 c-39 -12 -75 -47 -97 -95 -44 -95 -3 -212 88 -251 44 -19
77 -18 122 6 33 16 40 17 45 5 7 -18 47 -20 64 -3 8 8 12 59 12 164 0 125 -3
155 -16 168 -20 20 -33 20 -55 0 -16 -14 -21 -14 -63 0 -52 18 -58 18 -100 6z
m116 -95 c31 -31 40 -71 27 -119 -12 -42 -42 -66 -84 -66 -43 0 -72 24 -86 69
-31 103 72 187 143 116z"/>
<path d="M2605 453 c-10 -3 -29 -12 -41 -19 -18 -13 -23 -12 -34 1 -16 19 -44
19 -64 -1 -13 -13 -16 -41 -16 -155 0 -149 7 -179 43 -179 40 0 47 18 47 123
0 134 13 158 88 155 61 -2 84 36 40 66 -23 16 -29 17 -63 9z"/>
<path d="M2792 441 c-31 -15 -47 -30 -58 -56 -14 -33 -13 -40 3 -73 18 -37 21
-39 141 -83 27 -10 33 -16 30 -38 -3 -22 -8 -26 -41 -29 -29 -3 -47 3 -72 22
-38 30 -57 32 -75 11 -17 -21 -4 -51 33 -73 103 -63 237 -20 237 75 0 52 -21
78 -77 98 -103 37 -103 37 -103 61 0 36 43 43 96 14 52 -27 77 -21 72 17 -6
57 -113 87 -186 54z"/>
<path d="M3317 445 c-78 -27 -117 -86 -117 -176 0 -101 59 -166 161 -175 65
-7 142 26 147 63 5 32 -27 46 -62 27 -16 -8 -46 -14 -68 -14 -31 0 -46 7 -71
33 l-32 32 115 5 c63 3 121 9 128 13 6 5 12 24 12 43 0 63 -43 120 -112 149
-45 18 -52 18 -101 0z m101 -85 c42 -39 30 -50 -58 -50 -87 0 -95 6 -55 45 30
31 82 33 113 5z"/>
<path d="M3663 449 c-41 -12 -83 -62 -83 -99 0 -43 37 -78 110 -104 68 -25 87
-42 77 -70 -10 -26 -74 -21 -120 11 -30 21 -42 24 -55 16 -28 -17 -21 -55 16
-80 71 -47 168 -39 217 18 53 64 19 129 -86 164 -73 25 -95 48 -65 71 27 20
59 18 89 -6 45 -35 85 -23 73 23 -11 44 -108 76 -173 56z"/>
<path d="M1562 438 c-8 -8 -12 -59 -12 -164 0 -163 5 -179 52 -172 23 3 23 5
26 162 3 163 -2 186 -37 186 -9 0 -22 -5 -29 -12z"/>
<path d="M3049 169 c-17 -33 3 -69 39 -69 33 0 52 16 52 45 0 29 -19 45 -52
45 -18 0 -31 -7 -39 -21z"/>
</g>
</svg>
